<mxfile host="app.diagrams.net" agent="Mozilla/5.0 (Windows NT 10.0; Win64; x64) AppleWebKit/537.36 (KHTML, like Gecko) Chrome/134.0.0.0 Safari/537.36" version="26.1.2">
  <diagram name="Page-1" id="sI9sfIEU1DzrIv63sCzL">
    <mxGraphModel dx="880" dy="426" grid="1" gridSize="10" guides="1" tooltips="1" connect="1" arrows="1" fold="1" page="1" pageScale="1" pageWidth="850" pageHeight="1100" math="0" shadow="0">
      <root>
        <mxCell id="0" />
        <mxCell id="1" parent="0" />
        <mxCell id="wESQC5PjeXK2KQ446HtL-2" value="FollowRepository" style="shape=umlLifeline;perimeter=lifelinePerimeter;whiteSpace=wrap;container=1;dropTarget=0;collapsible=0;recursiveResize=0;outlineConnect=0;portConstraint=eastwest;newEdgeStyle={&quot;edgeStyle&quot;:&quot;elbowEdgeStyle&quot;,&quot;elbow&quot;:&quot;vertical&quot;,&quot;curved&quot;:0,&quot;rounded&quot;:0};size=65;fontFamily=Verdana;fontStyle=0" vertex="1" parent="1">
          <mxGeometry x="356" y="20" width="150" height="1646" as="geometry" />
        </mxCell>
        <mxCell id="wESQC5PjeXK2KQ446HtL-3" value="Base" style="shape=umlLifeline;perimeter=lifelinePerimeter;whiteSpace=wrap;container=1;dropTarget=0;collapsible=0;recursiveResize=0;outlineConnect=0;portConstraint=eastwest;newEdgeStyle={&quot;edgeStyle&quot;:&quot;elbowEdgeStyle&quot;,&quot;elbow&quot;:&quot;vertical&quot;,&quot;curved&quot;:0,&quot;rounded&quot;:0};size=65;fontFamily=Verdana;fontStyle=0" vertex="1" parent="1">
          <mxGeometry x="587" y="20" width="150" height="1646" as="geometry" />
        </mxCell>
        <mxCell id="wESQC5PjeXK2KQ446HtL-4" value="DatabaseFactory" style="shape=umlLifeline;perimeter=lifelinePerimeter;whiteSpace=wrap;container=1;dropTarget=0;collapsible=0;recursiveResize=0;outlineConnect=0;portConstraint=eastwest;newEdgeStyle={&quot;edgeStyle&quot;:&quot;elbowEdgeStyle&quot;,&quot;elbow&quot;:&quot;vertical&quot;,&quot;curved&quot;:0,&quot;rounded&quot;:0};size=65;fontFamily=Verdana;fontStyle=0" vertex="1" parent="1">
          <mxGeometry x="825" y="20" width="150" height="1646" as="geometry" />
        </mxCell>
        <mxCell id="wESQC5PjeXK2KQ446HtL-5" value="DatabaseConnection" style="shape=umlLifeline;perimeter=lifelinePerimeter;whiteSpace=wrap;container=1;dropTarget=0;collapsible=0;recursiveResize=0;outlineConnect=0;portConstraint=eastwest;newEdgeStyle={&quot;edgeStyle&quot;:&quot;elbowEdgeStyle&quot;,&quot;elbow&quot;:&quot;vertical&quot;,&quot;curved&quot;:0,&quot;rounded&quot;:0};size=65;fontFamily=Verdana;fontStyle=0" vertex="1" parent="1">
          <mxGeometry x="1025" y="20" width="167" height="1646" as="geometry" />
        </mxCell>
        <mxCell id="wESQC5PjeXK2KQ446HtL-6" value="Logger" style="shape=umlLifeline;perimeter=lifelinePerimeter;whiteSpace=wrap;container=1;dropTarget=0;collapsible=0;recursiveResize=0;outlineConnect=0;portConstraint=eastwest;newEdgeStyle={&quot;edgeStyle&quot;:&quot;elbowEdgeStyle&quot;,&quot;elbow&quot;:&quot;vertical&quot;,&quot;curved&quot;:0,&quot;rounded&quot;:0};size=65;fontFamily=Verdana;fontStyle=0" vertex="1" parent="1">
          <mxGeometry x="1242" y="20" width="150" height="1646" as="geometry" />
        </mxCell>
        <mxCell id="wESQC5PjeXK2KQ446HtL-8" value="addFollower(followerId, followeeId)" style="verticalAlign=bottom;edgeStyle=elbowEdgeStyle;elbow=vertical;curved=0;rounded=0;endArrow=open;fontFamily=Verdana;fontStyle=0;endFill=0;" edge="1" parent="1" target="wESQC5PjeXK2KQ446HtL-2">
          <mxGeometry relative="1" as="geometry">
            <Array as="points">
              <mxPoint x="272" y="127" />
            </Array>
            <mxPoint x="94.5" y="127" as="sourcePoint" />
          </mxGeometry>
        </mxCell>
        <mxCell id="wESQC5PjeXK2KQ446HtL-9" value="getRepository(Follows)" style="verticalAlign=bottom;edgeStyle=elbowEdgeStyle;elbow=vertical;curved=0;rounded=0;endArrow=block;fontFamily=Verdana;fontStyle=0" edge="1" parent="1" source="wESQC5PjeXK2KQ446HtL-2" target="wESQC5PjeXK2KQ446HtL-3">
          <mxGeometry relative="1" as="geometry">
            <Array as="points">
              <mxPoint x="555" y="179" />
            </Array>
          </mxGeometry>
        </mxCell>
        <mxCell id="wESQC5PjeXK2KQ446HtL-10" value="getConnection(DbType)" style="verticalAlign=bottom;edgeStyle=elbowEdgeStyle;elbow=vertical;curved=0;rounded=0;endArrow=open;fontFamily=Verdana;fontStyle=0;endFill=0;" edge="1" parent="1" source="wESQC5PjeXK2KQ446HtL-3" target="wESQC5PjeXK2KQ446HtL-4">
          <mxGeometry relative="1" as="geometry">
            <Array as="points">
              <mxPoint x="790" y="231" />
            </Array>
          </mxGeometry>
        </mxCell>
        <mxCell id="wESQC5PjeXK2KQ446HtL-11" value="initialize()" style="verticalAlign=bottom;edgeStyle=elbowEdgeStyle;elbow=vertical;curved=0;rounded=0;endArrow=open;fontFamily=Verdana;fontStyle=0;endFill=0;" edge="1" parent="1" source="wESQC5PjeXK2KQ446HtL-4" target="wESQC5PjeXK2KQ446HtL-5">
          <mxGeometry relative="1" as="geometry">
            <Array as="points">
              <mxPoint x="1013" y="283" />
            </Array>
          </mxGeometry>
        </mxCell>
        <mxCell id="wESQC5PjeXK2KQ446HtL-12" value="Connection Established" style="verticalAlign=bottom;edgeStyle=elbowEdgeStyle;elbow=vertical;curved=0;rounded=0;dashed=1;dashPattern=2 3;endArrow=open;fontFamily=Verdana;fontStyle=0;endFill=0;" edge="1" parent="1" source="wESQC5PjeXK2KQ446HtL-5" target="wESQC5PjeXK2KQ446HtL-3">
          <mxGeometry relative="1" as="geometry">
            <Array as="points">
              <mxPoint x="897" y="335" />
            </Array>
          </mxGeometry>
        </mxCell>
        <mxCell id="wESQC5PjeXK2KQ446HtL-13" value="Create newFollower" style="curved=1;endArrow=block;rounded=0;fontFamily=Verdana;fontStyle=0" edge="1" parent="1" source="wESQC5PjeXK2KQ446HtL-2" target="wESQC5PjeXK2KQ446HtL-2">
          <mxGeometry relative="1" as="geometry">
            <Array as="points">
              <mxPoint x="482" y="387" />
              <mxPoint x="482" y="417" />
            </Array>
          </mxGeometry>
        </mxCell>
        <mxCell id="wESQC5PjeXK2KQ446HtL-14" value="save(newFollower)" style="verticalAlign=bottom;edgeStyle=elbowEdgeStyle;elbow=vertical;curved=0;rounded=0;endArrow=block;fontFamily=Verdana;fontStyle=0" edge="1" parent="1" source="wESQC5PjeXK2KQ446HtL-2" target="wESQC5PjeXK2KQ446HtL-5">
          <mxGeometry relative="1" as="geometry">
            <Array as="points">
              <mxPoint x="778" y="469" />
            </Array>
          </mxGeometry>
        </mxCell>
        <mxCell id="wESQC5PjeXK2KQ446HtL-15" value="follower Saved" style="verticalAlign=bottom;edgeStyle=elbowEdgeStyle;elbow=vertical;curved=0;rounded=0;dashed=1;dashPattern=2 3;endArrow=open;fontFamily=Verdana;fontStyle=0;endFill=0;" edge="1" parent="1" source="wESQC5PjeXK2KQ446HtL-5" target="wESQC5PjeXK2KQ446HtL-2">
          <mxGeometry relative="1" as="geometry">
            <Array as="points">
              <mxPoint x="781" y="521" />
            </Array>
          </mxGeometry>
        </mxCell>
        <mxCell id="wESQC5PjeXK2KQ446HtL-16" value="info(followeeId started following followerId)" style="verticalAlign=bottom;edgeStyle=elbowEdgeStyle;elbow=vertical;curved=0;rounded=0;endArrow=block;fontFamily=Verdana;fontStyle=0" edge="1" parent="1" source="wESQC5PjeXK2KQ446HtL-2" target="wESQC5PjeXK2KQ446HtL-6">
          <mxGeometry relative="1" as="geometry">
            <Array as="points">
              <mxPoint x="883" y="573" />
            </Array>
          </mxGeometry>
        </mxCell>
        <mxCell id="wESQC5PjeXK2KQ446HtL-17" value="Return followeeId" style="verticalAlign=bottom;edgeStyle=elbowEdgeStyle;elbow=vertical;curved=0;rounded=0;dashed=1;dashPattern=2 3;endArrow=open;fontFamily=Verdana;fontStyle=0;endFill=0;" edge="1" parent="1" source="wESQC5PjeXK2KQ446HtL-2">
          <mxGeometry relative="1" as="geometry">
            <Array as="points">
              <mxPoint x="275" y="625" />
            </Array>
            <mxPoint x="94.5" y="625" as="targetPoint" />
          </mxGeometry>
        </mxCell>
        <mxCell id="wESQC5PjeXK2KQ446HtL-18" value="deleteFollower(followerId, followeeId)" style="verticalAlign=bottom;edgeStyle=elbowEdgeStyle;elbow=vertical;curved=0;rounded=0;endArrow=open;fontFamily=Verdana;fontStyle=0;endFill=0;" edge="1" parent="1" target="wESQC5PjeXK2KQ446HtL-2">
          <mxGeometry relative="1" as="geometry">
            <Array as="points">
              <mxPoint x="272" y="677" />
            </Array>
            <mxPoint x="94.5" y="677" as="sourcePoint" />
          </mxGeometry>
        </mxCell>
        <mxCell id="wESQC5PjeXK2KQ446HtL-19" value="getRepository(Follows)" style="verticalAlign=bottom;edgeStyle=elbowEdgeStyle;elbow=vertical;curved=0;rounded=0;endArrow=block;fontFamily=Verdana;fontStyle=0" edge="1" parent="1" source="wESQC5PjeXK2KQ446HtL-2" target="wESQC5PjeXK2KQ446HtL-3">
          <mxGeometry relative="1" as="geometry">
            <Array as="points">
              <mxPoint x="555" y="729" />
            </Array>
          </mxGeometry>
        </mxCell>
        <mxCell id="wESQC5PjeXK2KQ446HtL-20" value="delete(followerId, followeeId)" style="verticalAlign=bottom;edgeStyle=elbowEdgeStyle;elbow=vertical;curved=0;rounded=0;endArrow=block;fontFamily=Verdana;fontStyle=0" edge="1" parent="1" source="wESQC5PjeXK2KQ446HtL-2" target="wESQC5PjeXK2KQ446HtL-5">
          <mxGeometry relative="1" as="geometry">
            <Array as="points">
              <mxPoint x="778" y="781" />
            </Array>
          </mxGeometry>
        </mxCell>
        <mxCell id="wESQC5PjeXK2KQ446HtL-21" value="Deletion Success" style="verticalAlign=bottom;edgeStyle=elbowEdgeStyle;elbow=vertical;curved=0;rounded=0;dashed=1;dashPattern=2 3;endArrow=open;fontFamily=Verdana;fontStyle=0;endFill=0;" edge="1" parent="1" source="wESQC5PjeXK2KQ446HtL-5" target="wESQC5PjeXK2KQ446HtL-2">
          <mxGeometry relative="1" as="geometry">
            <Array as="points">
              <mxPoint x="781" y="833" />
            </Array>
          </mxGeometry>
        </mxCell>
        <mxCell id="wESQC5PjeXK2KQ446HtL-22" value="info(User unfollowed)" style="verticalAlign=bottom;edgeStyle=elbowEdgeStyle;elbow=vertical;curved=0;rounded=0;endArrow=block;fontFamily=Verdana;fontStyle=0" edge="1" parent="1" source="wESQC5PjeXK2KQ446HtL-2" target="wESQC5PjeXK2KQ446HtL-6">
          <mxGeometry relative="1" as="geometry">
            <Array as="points">
              <mxPoint x="883" y="885" />
            </Array>
          </mxGeometry>
        </mxCell>
        <mxCell id="wESQC5PjeXK2KQ446HtL-23" value="Return affected count" style="verticalAlign=bottom;edgeStyle=elbowEdgeStyle;elbow=vertical;curved=0;rounded=0;dashed=1;dashPattern=2 3;endArrow=open;fontFamily=Verdana;fontStyle=0;endFill=0;" edge="1" parent="1" source="wESQC5PjeXK2KQ446HtL-2">
          <mxGeometry relative="1" as="geometry">
            <Array as="points">
              <mxPoint x="275" y="937" />
            </Array>
            <mxPoint x="94.5" y="937" as="targetPoint" />
          </mxGeometry>
        </mxCell>
        <mxCell id="wESQC5PjeXK2KQ446HtL-24" value="getFollowersByFolloweeId(followeeId)" style="verticalAlign=bottom;edgeStyle=elbowEdgeStyle;elbow=vertical;curved=0;rounded=0;endArrow=open;fontFamily=Verdana;fontStyle=0;endFill=0;" edge="1" parent="1" target="wESQC5PjeXK2KQ446HtL-2">
          <mxGeometry relative="1" as="geometry">
            <Array as="points">
              <mxPoint x="272" y="989" />
            </Array>
            <mxPoint x="94.5" y="989" as="sourcePoint" />
          </mxGeometry>
        </mxCell>
        <mxCell id="wESQC5PjeXK2KQ446HtL-25" value="getRepository(Follows)" style="verticalAlign=bottom;edgeStyle=elbowEdgeStyle;elbow=vertical;curved=0;rounded=0;endArrow=block;fontFamily=Verdana;fontStyle=0" edge="1" parent="1" source="wESQC5PjeXK2KQ446HtL-2" target="wESQC5PjeXK2KQ446HtL-3">
          <mxGeometry relative="1" as="geometry">
            <Array as="points">
              <mxPoint x="555" y="1041" />
            </Array>
          </mxGeometry>
        </mxCell>
        <mxCell id="wESQC5PjeXK2KQ446HtL-26" value="find(followeeId)" style="verticalAlign=bottom;edgeStyle=elbowEdgeStyle;elbow=vertical;curved=0;rounded=0;endArrow=block;fontFamily=Verdana;fontStyle=0" edge="1" parent="1" source="wESQC5PjeXK2KQ446HtL-2" target="wESQC5PjeXK2KQ446HtL-5">
          <mxGeometry relative="1" as="geometry">
            <Array as="points">
              <mxPoint x="778" y="1093" />
            </Array>
          </mxGeometry>
        </mxCell>
        <mxCell id="wESQC5PjeXK2KQ446HtL-27" value="Return Followers Data" style="verticalAlign=bottom;edgeStyle=elbowEdgeStyle;elbow=vertical;curved=0;rounded=0;dashed=1;dashPattern=2 3;endArrow=open;fontFamily=Verdana;fontStyle=0;endFill=0;" edge="1" parent="1" source="wESQC5PjeXK2KQ446HtL-5" target="wESQC5PjeXK2KQ446HtL-2">
          <mxGeometry relative="1" as="geometry">
            <Array as="points">
              <mxPoint x="781" y="1145" />
            </Array>
          </mxGeometry>
        </mxCell>
        <mxCell id="wESQC5PjeXK2KQ446HtL-28" value="info(Get All Followers of User)" style="verticalAlign=bottom;edgeStyle=elbowEdgeStyle;elbow=vertical;curved=0;rounded=0;endArrow=block;fontFamily=Verdana;fontStyle=0" edge="1" parent="1" source="wESQC5PjeXK2KQ446HtL-2" target="wESQC5PjeXK2KQ446HtL-6">
          <mxGeometry relative="1" as="geometry">
            <Array as="points">
              <mxPoint x="883" y="1197" />
            </Array>
          </mxGeometry>
        </mxCell>
        <mxCell id="wESQC5PjeXK2KQ446HtL-29" value="Return Followers" style="verticalAlign=bottom;edgeStyle=elbowEdgeStyle;elbow=vertical;curved=0;rounded=0;dashed=1;dashPattern=2 3;endArrow=open;fontFamily=Verdana;fontStyle=0;endFill=0;" edge="1" parent="1" source="wESQC5PjeXK2KQ446HtL-2">
          <mxGeometry relative="1" as="geometry">
            <Array as="points">
              <mxPoint x="275" y="1249" />
            </Array>
            <mxPoint x="94.5" y="1249" as="targetPoint" />
          </mxGeometry>
        </mxCell>
        <mxCell id="wESQC5PjeXK2KQ446HtL-30" value="getFolloweesByFollowerId(followerId)" style="verticalAlign=bottom;edgeStyle=elbowEdgeStyle;elbow=vertical;curved=0;rounded=0;endArrow=open;fontFamily=Verdana;fontStyle=0;endFill=0;" edge="1" parent="1" target="wESQC5PjeXK2KQ446HtL-2">
          <mxGeometry relative="1" as="geometry">
            <Array as="points">
              <mxPoint x="272" y="1301" />
            </Array>
            <mxPoint x="94.5" y="1301" as="sourcePoint" />
          </mxGeometry>
        </mxCell>
        <mxCell id="wESQC5PjeXK2KQ446HtL-31" value="getRepository(Follows)" style="verticalAlign=bottom;edgeStyle=elbowEdgeStyle;elbow=vertical;curved=0;rounded=0;endArrow=block;fontFamily=Verdana;fontStyle=0" edge="1" parent="1" source="wESQC5PjeXK2KQ446HtL-2" target="wESQC5PjeXK2KQ446HtL-3">
          <mxGeometry relative="1" as="geometry">
            <Array as="points">
              <mxPoint x="555" y="1353" />
            </Array>
          </mxGeometry>
        </mxCell>
        <mxCell id="wESQC5PjeXK2KQ446HtL-32" value="find(followerId)" style="verticalAlign=bottom;edgeStyle=elbowEdgeStyle;elbow=vertical;curved=0;rounded=0;endArrow=block;fontFamily=Verdana;fontStyle=0" edge="1" parent="1" source="wESQC5PjeXK2KQ446HtL-2" target="wESQC5PjeXK2KQ446HtL-5">
          <mxGeometry relative="1" as="geometry">
            <Array as="points">
              <mxPoint x="778" y="1405" />
            </Array>
          </mxGeometry>
        </mxCell>
        <mxCell id="wESQC5PjeXK2KQ446HtL-33" value="Return Followees Data" style="verticalAlign=bottom;edgeStyle=elbowEdgeStyle;elbow=vertical;curved=0;rounded=0;dashed=1;dashPattern=2 3;endArrow=open;fontFamily=Verdana;fontStyle=0;endFill=0;" edge="1" parent="1" source="wESQC5PjeXK2KQ446HtL-5" target="wESQC5PjeXK2KQ446HtL-2">
          <mxGeometry relative="1" as="geometry">
            <Array as="points">
              <mxPoint x="781" y="1457" />
            </Array>
          </mxGeometry>
        </mxCell>
        <mxCell id="wESQC5PjeXK2KQ446HtL-34" value="info(Get All Followees of User)" style="verticalAlign=bottom;edgeStyle=elbowEdgeStyle;elbow=vertical;curved=0;rounded=0;endArrow=block;fontFamily=Verdana;fontStyle=0" edge="1" parent="1" source="wESQC5PjeXK2KQ446HtL-2" target="wESQC5PjeXK2KQ446HtL-6">
          <mxGeometry relative="1" as="geometry">
            <Array as="points">
              <mxPoint x="883" y="1509" />
            </Array>
          </mxGeometry>
        </mxCell>
        <mxCell id="wESQC5PjeXK2KQ446HtL-35" value="Return Followees" style="verticalAlign=bottom;edgeStyle=elbowEdgeStyle;elbow=vertical;curved=0;rounded=0;dashed=1;dashPattern=2 3;endArrow=open;fontFamily=Verdana;fontStyle=0;endFill=0;" edge="1" parent="1" source="wESQC5PjeXK2KQ446HtL-2">
          <mxGeometry relative="1" as="geometry">
            <Array as="points">
              <mxPoint x="275" y="1561" />
            </Array>
            <mxPoint x="94.5" y="1561" as="targetPoint" />
          </mxGeometry>
        </mxCell>
        <mxCell id="wESQC5PjeXK2KQ446HtL-36" value="Client" style="shape=umlActor;verticalLabelPosition=bottom;verticalAlign=top;html=1;outlineConnect=0;fontFamily=Verdana;fontStyle=0" vertex="1" parent="1">
          <mxGeometry x="80" y="10" width="30" height="50" as="geometry" />
        </mxCell>
        <mxCell id="wESQC5PjeXK2KQ446HtL-37" value="" style="endArrow=none;dashed=1;html=1;rounded=0;fontFamily=Verdana;fontStyle=0" edge="1" parent="1">
          <mxGeometry width="50" height="50" relative="1" as="geometry">
            <mxPoint x="95" y="1670" as="sourcePoint" />
            <mxPoint x="95" y="80" as="targetPoint" />
          </mxGeometry>
        </mxCell>
      </root>
    </mxGraphModel>
  </diagram>
</mxfile>
